<?xml version="1.0" encoding="UTF-8"?>
<svg width="64px" height="80px" viewBox="0 0 64 80" version="1.1" xmlns="http://www.w3.org/2000/svg" xmlns:xlink="http://www.w3.org/1999/xlink">
    <!-- Generator: Sketch 40.2 (33826) - http://www.bohemiancoding.com/sketch -->
    <title>document-icon</title>
    <desc>Created with Sketch.</desc>
    <defs></defs>
    <g id="Logos" stroke="none" stroke-width="1" fill="none" fill-rule="evenodd">
        <g id="document-icon" fill="#F5A623">
            <path d="M48.6666667,29.3333333 L15.3333333,29.3333333 C14.5973333,29.3333333 14,29.9293333 14,30.6666667 C14,31.404 14.5973333,32 15.3333333,32 L48.6666667,32 C49.4026667,32 50,31.404 50,30.6666667 C50,29.9293333 49.4026667,29.3333333 48.6666667,29.3333333 L48.6666667,29.3333333 Z" id="Shape"></path>
            <path d="M15.3333333,21.3333333 L28.6666667,21.3333333 C29.4026667,21.3333333 30,20.7373333 30,20 C30,19.2626667 29.4026667,18.6666667 28.6666667,18.6666667 L15.3333333,18.6666667 C14.5973333,18.6666667 14,19.2626667 14,20 C14,20.7373333 14.5973333,21.3333333 15.3333333,21.3333333 L15.3333333,21.3333333 Z" id="Shape"></path>
            <path d="M48.6666667,40 L15.3333333,40 C14.5973333,40 14,40.596 14,41.3333333 C14,42.0706667 14.5973333,42.6666667 15.3333333,42.6666667 L48.6666667,42.6666667 C49.4026667,42.6666667 50,42.0706667 50,41.3333333 C50,40.596 49.4026667,40 48.6666667,40 L48.6666667,40 Z" id="Shape"></path>
            <path d="M48.6666667,50.6666667 L15.3333333,50.6666667 C14.5973333,50.6666667 14,51.2626667 14,52 C14,52.7373333 14.5973333,53.3333333 15.3333333,53.3333333 L48.6666667,53.3333333 C49.4026667,53.3333333 50,52.7373333 50,52 C50,51.2626667 49.4026667,50.6666667 48.6666667,50.6666667 L48.6666667,50.6666667 Z" id="Shape"></path>
            <path d="M48.6666667,61.3333333 L15.3333333,61.3333333 C14.5973333,61.3333333 14,61.9293333 14,62.6666667 C14,63.404 14.5973333,64 15.3333333,64 L48.6666667,64 C49.4026667,64 50,63.404 50,62.6666667 C50,61.9293333 49.4026667,61.3333333 48.6666667,61.3333333 L48.6666667,61.3333333 Z" id="Shape"></path>
            <path d="M43.8853333,0 L0.666666667,0 L0.666666667,80 L63.3333333,80 L63.3333333,19.448 L43.8853333,0 L43.8853333,0 Z M44.6666667,4.552 L58.7813333,18.6666667 L44.6666667,18.6666667 L44.6666667,4.552 L44.6666667,4.552 Z M3.33333333,77.3333333 L3.33333333,2.66666667 L42,2.66666667 L42,21.3333333 L60.6666667,21.3333333 L60.6666667,77.3333333 L3.33333333,77.3333333 L3.33333333,77.3333333 Z" id="Shape"></path>
        </g>
    </g>
</svg>