<?xml version="1.0" encoding="UTF-8"?>
<svg width="94px" height="59px" viewBox="0 0 94 59" version="1.1" xmlns="http://www.w3.org/2000/svg" xmlns:xlink="http://www.w3.org/1999/xlink">
    <!-- Generator: Sketch 39.1 (31720) - http://www.bohemiancoding.com/sketch -->
    <title>logo-white</title>
    <desc>Created with Sketch.</desc>
    <defs></defs>
    <g id="Logos" stroke="none" stroke-width="1" fill="none" fill-rule="evenodd">
        <g id="logo-white" fill="#FFFFFF">
            <path d="M0.010763986,0.288348293 C0.0146258741,0.643451413 0.0156118881,0.990088067 0.0156118881,1.33664331 C0.0156118881,1.72943849 0.0142972028,2.12231507 0.0142972028,2.51511025 L0.0142972028,58.0727925 L0.0142972028,58.4155216 L0.369015734,58.4155216 L16.4403864,58.4155216 L26.0860682,58.4155216 L30.9009388,58.4155216 C39.7402255,58.4155216 48.5795944,58.4154402 57.4188811,58.4153588 L59.8270559,58.4153588 L62.2341626,58.4153588 C63.050007,58.4153588 63.8444056,58.4152774 64.6408584,58.4152774 L67.0490332,58.4152774 L69.4558934,58.4152774 C70.2852955,58.415196 71.0739423,58.415196 71.8629178,58.415196 L74.2701066,58.415196 C75.1078899,58.4151146 75.8953864,58.4151146 76.6805,58.4151146 L79.0936049,58.4151146 C79.9312238,58.4150332 80.7168304,58.4150332 81.5038339,58.4150332 C82.3426031,58.4150332 83.128292,58.4150332 83.9134056,58.4149517 L86.3285647,58.4149517 C87.163965,58.4148703 87.9535979,58.4148703 88.7424913,58.4148703 C89.5744406,58.4148703 90.3658811,58.4147889 91.1624161,58.4147889 C91.9827797,58.4147889 92.7823549,58.4147889 93.5826696,58.4147075 C93.998028,58.416987 93.9646678,58.3819 93.9645857,58.0391709 C93.9649143,49.0446091 93.9651608,40.0520826 93.9651608,31.059556 C93.9651608,20.8680476 93.9649143,10.6765392 93.9643392,0.485030809 C93.9650787,0.117065174 94.0015612,0.0791288934 93.7933479,0.0790474851 C92.7499808,0.0818153682 91.9318357,0.0817339598 91.1147587,0.0817339598 C90.2810017,0.0816525515 89.4717308,0.0816525515 88.6622955,0.0816525515 C87.8121871,0.0816525515 87.010229,0.0815711432 86.2045734,0.0815711432 C67.2681748,0.0810826932 48.3866643,0.0809198766 29.5065507,0.0809198766 L24.5869983,0.0809198766 L14.7303094,0.0809198766 L0.39456993,0.0809198766 C0.0497115385,0.0759539687 0.0106818182,0.146372171 0.010763986,0.288348293 Z M36.5509633,43.5752721 L36.5509633,43.5752721 L36.5514563,43.5752721 C36.6356783,43.5754349 36.6816101,43.6297343 36.729514,43.7468809 C36.7304178,43.7490789 36.7313217,43.7513583 36.7322255,43.7536378 C37.9722203,46.8403973 39.218542,49.9246331 40.463549,53.0093575 C40.8725804,54.0229725 41.2817762,55.0364248 41.6905612,56.0501213 C41.7206346,56.1246099 41.7473392,56.2004824 41.7882587,56.3094882 L26.5052063,56.3094882 C26.5052063,56.2779018 26.5026591,56.2503043 26.5026591,56.2249049 C26.5026591,56.2100886 26.5034808,56.196005 26.5061101,56.1823284 C27.2356783,52.4017257 27.9673829,48.6214487 28.6926783,44.8400319 C28.6928427,44.839055 28.6930892,44.8380781 28.6932535,44.8371012 C28.6933357,44.8366127 28.6934178,44.8362057 28.6935822,44.8357172 C28.7218479,44.6926014 28.7732028,44.6450589 28.8964545,44.6449775 L28.8969476,44.6449775 L28.8971119,44.6449775 C28.9117378,44.6449775 28.9273497,44.6456288 28.9441119,44.6469313 C28.9454266,44.6470127 28.9468234,44.6470942 28.9481381,44.6471756 C28.9593951,44.6480711 28.9708164,44.649048 28.9820734,44.649862 C29.4671923,44.6877169 29.9505857,44.7070921 30.4322535,44.7070921 L30.4325,44.7070921 L30.4333217,44.7070921 C31.9532622,44.7070107 33.4551259,44.5137473 34.9340647,44.0948201 C34.9515664,44.0899356 34.9692325,44.0848883 34.9867343,44.0798409 C35.4661836,43.9422609 35.9402098,43.7824563 36.4074161,43.6083239 C36.4111958,43.60694 36.4148934,43.605556 36.4185909,43.6042535 C36.471507,43.5852039 36.5143986,43.5753535 36.5503881,43.5752721 L36.5509633,43.5752721 M20.5339056,41.5557758 L20.5339056,41.5557758 L20.5347273,41.5557758 C20.5669371,41.5559386 20.6030909,41.5696152 20.6479545,41.5998991 C20.6500909,41.6013644 20.6522273,41.6028298 20.6544458,41.6043765 C20.6552675,41.6049464 20.6560892,41.6055163 20.6569108,41.6060861 C22.3987867,42.8352704 24.3048339,43.7157829 26.3843374,44.2173396 C26.545715,44.2562528 26.6116958,44.3050978 26.6113671,44.4296525 C26.611285,44.4622158 26.6066836,44.4999079 26.5981381,44.5439498 C25.8472885,48.3962732 25.1049843,52.2502248 24.3652273,56.1046648 C24.3648164,56.1068629 24.3644056,56.1090609 24.3639948,56.1112589 C24.332771,56.2671559 24.2749248,56.3262583 24.1023724,56.3264211 L24.1019615,56.3264211 L24.1013042,56.3264211 C18.4398584,56.321618 12.7784126,56.3225135 7.11696678,56.3218623 C7.05780594,56.3218623 6.9986451,56.3131516 6.88361014,56.3040338 C6.97284441,56.2037388 7.02510315,56.1430896 7.07933392,56.0843128 C10.9114773,51.9279292 14.743785,47.7717085 18.5760927,43.6155692 C19.1808479,42.9597438 19.7871643,42.3053022 20.3888794,41.6467903 C20.3902762,41.6452435 20.3916731,41.6436968 20.3930699,41.64215 C20.3933986,41.6419058 20.3936451,41.6415801 20.3939738,41.6412545 C20.3946311,41.6405218 20.3952885,41.6398706 20.3959458,41.6391379 C20.4440962,41.5874436 20.4843584,41.5559386 20.5334948,41.5557758 L20.5339056,41.5557758 M38.6030227,42.69362 C38.6031049,42.6135956 38.6524056,42.5610872 38.7565122,42.5023918 C40.5066049,41.5160485 42.0198077,40.2473811 43.3156766,38.7222776 C43.3461608,38.6863765 43.3774668,38.6511267 43.4285752,38.5922685 C50.8373199,44.4930696 58.2241259,50.376368 65.6109318,56.2596663 C65.6051801,56.276355 65.5993462,56.2931251 65.5935944,56.3098138 C65.5223549,56.3140471 65.4511154,56.3219437 65.3798759,56.3219437 C58.3621678,56.3225135 51.344542,56.3218623 44.3268339,56.3263397 L44.3260944,56.3263397 L44.3254371,56.3263397 C44.1514056,56.3262583 44.0638147,56.2779832 43.9970944,56.116062 C43.9966836,56.1149223 43.9961906,56.113864 43.9956976,56.1127243 C43.995451,56.1119102 43.9951224,56.1110961 43.9947937,56.1103634 C42.2137238,51.6832158 40.4282168,47.2577778 38.6373689,42.8344564 C38.6146906,42.7782846 38.6029406,42.7326959 38.6030227,42.69362 M14.440257,33.2354378 C15.300472,35.7945085 16.6896014,38.0159789 18.6230105,39.9012329 C18.7053427,39.9815016 18.8069843,40.042395 18.9119948,40.1216867 C18.8133112,40.2369609 18.7592448,40.3044484 18.7007413,40.3679469 C13.8990175,45.5759632 9.0968007,50.7835724 4.29729545,55.9936239 C4.2279458,56.0688452 4.02622375,56.3215363 4.02622375,56.3215363 C4.02622375,56.3215363 3.97593706,56.3215366 3.92918357,56.3215363 C3.88358042,56.3215366 3.8378951,56.321618 3.79229196,56.321618 C3.73912937,56.321618 3.68785664,56.3215366 3.63658392,56.3215366 C3.58490035,56.3215366 3.53329895,56.3214552 3.48169755,56.3214552 C3.42976748,56.3214552 3.37775524,56.3213738 3.32582517,56.3213738 C3.27405944,56.3212924 3.22221154,56.3212924 3.1704458,56.3212924 C3.02878846,56.3212924 2.88869231,56.3214552 2.74851399,56.3218623 C2.72920455,56.3219437 2.70981294,56.3220251 2.6905035,56.3221065 C2.56823776,56.3225949 2.44588986,56.3233276 2.32362413,56.3243859 C2.18040559,56.3243045 2.11927273,56.2761108 2.1341451,56.1361699 C2.13652797,56.054843 2.13472028,56.0242334 2.13472028,55.9937867 C2.13472028,54.2291798 2.13488462,52.4645729 2.13488462,50.699966 C2.13488462,46.1905146 2.13422727,41.6809818 2.12946154,37.1714489 C2.12962587,36.9368301 2.1903479,36.8323833 2.42501923,36.7583831 C6.31196853,35.5327807 10.1954668,34.2961068 14.0797045,33.062038 C14.1898094,33.0272767 14.2396853,33.0128674 14.2770717,33.0106694 C14.3639231,33.0105066 14.3848759,33.0707487 14.440257,33.2354378 Z M47.0376329,31.2311648 L47.0376329,31.2311648 L47.0378794,31.2311648 C47.0571066,31.2311648 47.0785524,31.2330371 47.1025455,31.2367005 L47.1027098,31.2367005 C47.104271,31.2369447 47.1059143,31.237189 47.1075577,31.2375146 C47.1078864,31.2375146 47.108215,31.237596 47.1085437,31.2376774 C47.109201,31.2377588 47.1098584,31.2378402 47.1105979,31.2380031 C47.1119126,31.2381659 47.1132273,31.2384101 47.1146241,31.2386543 C52.6994073,32.1942253 58.2851766,33.1445861 63.8708636,34.0950283 C69.571257,35.0650899 75.2718147,36.034256 80.9722902,37.0040734 C84.493757,37.6031573 88.0151416,38.2024854 91.5365262,38.8020577 C91.8483531,38.8552174 91.8484353,38.8565199 91.8484353,39.1674997 L91.8484353,47.0536057 L91.8484353,51.7852204 C91.8484353,52.4975433 91.8485175,53.2097848 91.8485175,53.9221076 C91.8485175,54.6344305 91.8484353,55.3466719 91.848271,56.0589948 C91.848271,56.3217809 91.8473671,56.3224321 91.5753916,56.3224321 C90.3361364,56.3224321 89.0967168,56.3225135 87.8574615,56.3225135 L84.1415857,56.3225135 L84.1395315,56.3225135 L80.4216014,56.3225135 L79.9419056,56.3225135 L79.9413304,56.3225135 L79.4623741,56.3225135 L79.4608129,56.3225135 C79.3014895,56.3225135 79.1420017,56.3225135 78.9827605,56.3224321 L78.9802955,56.3224321 L78.5021608,56.3224321 L78.0247657,56.3224321 L78.0213969,56.3224321 C77.8621556,56.3224321 77.7029143,56.3224321 77.5435909,56.3223507 L77.5417832,56.3223507 L77.0629913,56.3223507 L77.0623339,56.3223507 L76.5826381,56.3223507 L76.5818164,56.3223507 C74.2790629,56.3223507 71.9763094,56.3228392 69.6735559,56.325607 C69.5656696,56.3257699 69.4578654,56.3258513 69.349979,56.3260141 L69.3485,56.3260141 L69.3477605,56.3260141 C69.1543374,56.3258513 69.005285,56.2742384 68.8540962,56.1552194 C68.8531101,56.1544053 68.8522063,56.1536727 68.8512203,56.15294 C68.8503986,56.1522887 68.8495769,56.1516375 68.8488374,56.1509862 C63.5950262,51.9615509 58.3379283,47.7760232 53.0814056,43.5899256 C50.3549126,41.4186841 47.6282552,39.2474427 44.9021731,37.0756313 C44.7522168,36.9561239 44.6898514,36.9159896 44.6898514,36.8621787 C44.6899336,36.8153689 44.7370979,36.7583831 44.814993,36.630165 C45.8017465,35.0058246 46.4900664,33.2661287 46.8701748,31.4079022 C46.8704213,31.4065183 46.87075,31.4052972 46.8709965,31.4039946 C46.8710787,31.403669 46.8710787,31.4033434 46.8711608,31.4030991 C46.8714073,31.4020408 46.8715717,31.4010639 46.8718182,31.4000056 C46.8719825,31.3993544 46.8721469,31.3986217 46.872229,31.3979704 C46.8969615,31.2841616 46.9350874,31.2313276 47.0369755,31.2311648 L47.0376329,31.2311648 M2.24137413,24.1161584 L2.24137413,24.1161584 L2.24309965,24.1161584 C2.27284441,24.1163212 2.31080594,24.1207173 2.35912063,24.1273114 C2.35994231,24.1273928 2.36076399,24.1275556 2.36158566,24.127637 C2.36322902,24.1278812 2.36495455,24.1281255 2.3665979,24.1282883 C2.37136364,24.1289395 2.37621154,24.1296722 2.38114161,24.1303235 C2.38179895,24.1304049 2.38245629,24.1304863 2.38311364,24.1306491 C2.3877972,24.1313004 2.3926451,24.1319516 2.39757517,24.1326843 C2.39823252,24.1327657 2.39888986,24.1328471 2.39962937,24.1329285 C5.23803497,24.5337017 8.07627622,24.9355332 10.9145175,25.3372833 C11.8019301,25.4628964 12.6886031,25.593801 13.5770839,25.7115174 C13.715208,25.7297529 13.7621259,25.7763998 13.7621259,25.8789743 C13.7621259,25.899652 13.7601538,25.9226906 13.7567028,25.9481714 C13.6601556,26.6563424 13.6124161,27.3639436 13.6124983,28.0707307 C13.6125804,28.9580815 13.6880927,29.8442925 13.8373094,30.7288754 C13.8419108,30.7562286 13.8443759,30.7808953 13.844458,30.8031198 C13.8446224,30.9019495 13.7968007,30.9537252 13.6747815,30.9923127 C9.89341783,32.1899106 6.11361538,33.3921488 2.33331993,34.5928402 C2.28286888,34.6088776 2.22962413,34.6158788 2.13472028,34.6363936 L2.13472028,34.3634315 L2.13472028,30.6172646 C2.13472028,28.5361421 2.13472028,26.4549382 2.13480245,24.3738158 C2.13480245,24.1713533 2.13537762,24.1162398 2.24104545,24.1161584 L2.24137413,24.1161584 M30.4965087,13.5172014 L30.4965087,13.5172014 L30.4973304,13.5172014 C38.3905367,13.517527 44.9886136,19.9638453 45.099951,27.795652 C45.1000332,27.8009435 45.1001154,27.8055024 45.1001976,27.8107939 C45.1004441,27.8325299 45.1006906,27.8548358 45.1009371,27.8765718 C45.1012657,27.9201253 45.1014301,27.9635973 45.1014301,28.0070694 C45.0997867,36.0530613 38.6257832,42.5375602 30.4842657,42.615468 L30.4764598,42.615468 L30.4754738,42.615468 L30.4693112,42.615468 C30.4678322,42.6155494 30.4674213,42.6155494 30.4659423,42.6155494 L30.4622448,42.6155494 L30.4394843,42.6155494 L30.4375944,42.6155494 L30.4184493,42.6155494 L30.4175455,42.6155494 C22.4432395,42.6155494 15.862007,36.2893083 15.7413024,28.317805 C15.7401521,28.2420952 15.7395769,28.1665483 15.7395769,28.0910828 C15.7389196,20.0349962 22.217771,13.5903874 30.3672587,13.5177712 L30.3743252,13.5177712 C30.3753112,13.5176898 30.3758864,13.5176898 30.3768724,13.5176898 L30.3811451,13.5176898 C30.382542,13.5176898 30.3854178,13.5176084 30.3868147,13.5176084 L30.3877185,13.5176084 C30.4174633,13.5173642 30.446222,13.5172828 30.4758846,13.5172014 L30.4769528,13.5172014 L30.4823759,13.5172014 L30.4872238,13.5172014 L30.4891136,13.5172014 L30.4965087,13.5172014 M46.8657378,24.6702235 C46.8660664,24.5558448 46.9594913,24.5370395 47.059243,24.5083837 C48.6043269,24.065441 50.1491643,23.6217657 51.6939196,23.1778461 C63.9660962,19.6507489 76.2381906,16.1235703 88.5103671,12.5964732 C89.5357395,12.301775 90.5613584,12.0077282 91.5870594,11.7136813 C91.6580524,11.6934106 91.7300315,11.6763963 91.8354528,11.6491245 L91.8354528,36.7153181 C91.7345507,36.7026184 91.6492605,36.6952916 91.565285,36.6810452 C85.7154283,35.6855842 79.8656538,34.6893091 74.015715,33.6936038 C66.3981818,32.3970134 58.7804843,31.1009114 51.1628689,29.804321 C49.9079196,29.590787 48.6533811,29.3746479 47.3977745,29.164533 C47.2645804,29.1422271 47.1893147,29.1113733 47.1895612,28.9650826 C47.1895612,28.9566161 47.1898077,28.9477426 47.1903829,28.9385435 C47.2078024,28.6289476 47.2165122,28.3199216 47.2165122,28.0114654 C47.2163479,26.9100108 47.1040245,25.8163713 46.8729685,24.7321752 C46.8680385,24.7088925 46.8657378,24.6883776 46.8657378,24.6702235 M2.13077622,21.7353719 L2.13077622,21.7353719 C2.13578846,16.8308459 2.13472028,11.9263198 2.13521329,7.0217938 C2.13521329,6.95585305 2.14137587,6.8898309 2.14778497,6.7617756 C2.49913462,7.03196984 2.80677098,7.26618159 3.11194231,7.50356827 C7.60816608,11.0017655 12.1043077,14.5002069 16.5996276,17.9996252 C16.7726731,18.134356 16.8479388,18.1776652 16.8479388,18.2336742 C16.8478566,18.2858569 16.782451,18.3490298 16.6698811,18.5075318 C15.5888811,20.0304373 14.7874161,21.6860385 14.2716486,23.4755563 C14.2713199,23.4767774 14.2709913,23.4779986 14.2705804,23.4792197 C14.2703339,23.4801152 14.2700874,23.4810107 14.2698409,23.4819062 C14.2695122,23.4829645 14.2691836,23.4841042 14.2688549,23.4852439 L14.2687727,23.4852439 C14.2286748,23.6178581 14.1741976,23.6635281 14.0683654,23.6636095 L14.0679545,23.6636095 L14.0676259,23.6636095 C14.0434685,23.6636095 14.0165997,23.6612487 13.9866084,23.6570155 C13.9861976,23.6569341 13.9857045,23.6568526 13.9852115,23.6567712 C11.6748164,23.3256022 9.36351748,23.0002945 7.0525472,22.6731958 C5.4943986,22.4526607 3.93674301,22.228625 2.37760839,22.0150909 C2.18969056,21.9893659 2.13061189,21.9248091 2.13077622,21.7353719 M21.2566538,2.19208201 L21.2566538,2.19208201 L34.9509913,2.19208201 C34.8948706,2.52593756 34.8436801,2.84351144 34.7877238,3.16027124 C34.2994003,5.92335125 33.8086941,8.68610562 33.3248077,11.4499183 C33.3246434,11.4508138 33.324479,11.4516279 33.3243147,11.4525234 C33.3241503,11.4534189 33.323986,11.4543144 33.3238217,11.4552099 C33.2987605,11.5934412 33.2545542,11.6448098 33.1460927,11.6449727 L33.1456818,11.6449727 L33.1453531,11.6449727 C33.1209493,11.6449727 33.0934231,11.6423676 33.062035,11.6375645 C33.0600629,11.6373203 33.0580909,11.6369946 33.0561189,11.636669 C33.0359056,11.6334941 33.0156923,11.6303192 32.995479,11.6272256 C32.1238427,11.4924949 31.2561503,11.4256586 30.3934703,11.4255772 L30.3930594,11.4255772 L30.3923199,11.4255772 C28.7524965,11.42574 27.1286958,11.6672785 25.521986,12.1436801 C25.5204248,12.1441685 25.5188636,12.144657 25.5172203,12.145064 C25.5168094,12.1452268 25.5163986,12.1453082 25.5159056,12.1454711 C25.5135227,12.1461223 25.5111399,12.1467736 25.5088392,12.1474249 C25.5086748,12.1475063 25.5085105,12.1475877 25.5083462,12.1475877 C25.472521,12.1575195 25.4420367,12.1629738 25.4156608,12.1630553 L25.4151678,12.1630553 L25.414757,12.1630553 C25.3454895,12.1628924 25.3038304,12.1254446 25.2651294,12.0341859 C25.2650472,12.0339416 25.2648829,12.0336974 25.2648007,12.0334532 C25.263979,12.0314994 25.2632395,12.029627 25.2624178,12.0276732 C25.2621713,12.0271033 25.2619248,12.0266149 25.2617605,12.026045 C23.9503619,8.81521923 22.6349371,5.606103 21.3209091,2.39641691 C21.2985594,2.34179192 21.2850839,2.28350356 21.2566538,2.19208201 M69.8443007,2.17889386 L69.8443007,2.17889386 L91.5350472,2.17889386 C91.8479423,2.17889386 91.8483531,2.17913808 91.8483531,2.48678015 L91.8483531,2.59138985 C91.8483531,3.49803438 91.8479423,4.40476032 91.8479423,5.31140486 C91.8479423,6.60164542 91.8488462,7.89188599 91.8532832,9.18212656 L91.8532832,9.18692965 C91.8531189,9.38841526 91.7945332,9.47560358 91.5929755,9.53340349 C77.0412168,13.7100577 62.4911014,17.8920034 47.9407395,22.0735421 C47.4410769,22.2171464 46.9400997,22.3567617 46.4424913,22.5071229 C46.4413409,22.5074485 46.4402727,22.5077741 46.4391224,22.5080998 C46.4390402,22.5080998 46.438958,22.5081812 46.4388759,22.5081812 C46.4383007,22.508344 46.4377255,22.5085068 46.4371503,22.5086696 C46.4037902,22.5184386 46.3754423,22.5234859 46.3509563,22.5235673 L46.3505455,22.5235673 L46.3496416,22.5235673 C46.2798811,22.5232417 46.2413444,22.4819677 46.2067517,22.3924999 C46.2064231,22.3916858 46.2061766,22.3908718 46.2058479,22.3900577 C46.2052727,22.3885923 46.2046976,22.3869642 46.2041224,22.3854174 C46.2037937,22.3847661 46.2035472,22.3840335 46.2033007,22.3833822 C45.4278829,20.287362 44.2781084,18.4164359 42.7402552,16.7840361 C42.6709878,16.7105244 42.6395175,16.6533757 42.639764,16.5977738 C42.6399283,16.5377759 42.6771503,16.4794875 42.743542,16.4043477 C46.8356643,11.767655 50.9235962,7.12729899 55.0098024,2.48547762 C55.0776731,2.40838393 55.1162098,2.30597226 55.1894213,2.17889386 L55.3837483,2.17889386 L69.8443007,2.17889386 M35.3761276,12.031418 C35.3761276,12.0041462 35.3795787,11.973211 35.3859056,11.9376356 C35.945715,8.80154263 36.4978007,5.66406573 37.0515297,2.52699586 C37.0539126,2.51356349 37.0556381,2.50013112 37.0581031,2.48678015 C37.1143059,2.17897527 37.1143059,2.17889386 37.4281049,2.17889386 L44.7714441,2.17889386 L52.1147832,2.17889386 L52.3898811,2.17889386 C52.3988374,2.19875749 52.4077937,2.21862112 52.41675,2.23840335 C48.6243759,6.54197312 44.8320839,10.8453801 41.0333007,15.1561138 C40.9743864,15.117282 40.9278794,15.0910685 40.8863846,15.0585052 C39.2805787,13.8002581 37.5103549,12.8444429 35.5582115,12.2272864 C35.4268252,12.1857682 35.3762098,12.1358649 35.3761276,12.031418 M19.0398479,2.40659295 C20.4482045,5.86009698 21.8561503,9.29642385 23.2708339,12.7300642 C23.2969633,12.7934813 23.3107675,12.8438731 23.3107675,12.886124 C23.3108497,12.9710329 23.2553864,13.0225644 23.133778,13.0799572 C21.340958,13.9258712 19.7594738,15.0664832 18.377986,16.4773709 C18.3159493,16.5388342 18.270264,16.5595933 18.2292622,16.5595933 C18.1658287,16.5593491 18.1140629,16.5100157 18.0538339,16.4619033 C14.8489598,13.9684477 11.6555892,11.484354 8.46213636,9.00034176 C6.43735664,7.42525346 4.41454895,5.84772291 2.38418182,4.27979854 C2.26753449,4.18974468 2.13488462,4.07041631 2.13488462,4.07041631 L2.12847552,3.79313957 C2.12847552,3.79313957 2.13923951,3.40050721 2.13932168,3.22409536 C2.13932168,2.97311349 2.13488462,2.72196881 2.13488462,2.47090553 C2.13513112,2.17978935 2.13570629,2.17905668 2.40349126,2.17897527 C3.19041259,2.17897527 3.97716958,2.17889386 4.76409091,2.17889386 L7.1228007,2.17889386 L10.5580734,2.17889386 C11.0955332,2.17889386 11.632993,2.17897527 12.1704528,2.17905668 C12.7075839,2.17913808 13.2451259,2.17921949 13.782257,2.17921949 C15.2048287,2.17921949 16.6258392,2.17856823 18.0470962,2.17563753 C18.1149668,2.17555612 18.1826731,2.1753933 18.2504615,2.17523048 C18.3908042,2.17490485 18.531229,2.17457922 18.6715717,2.17425359 C18.869514,2.17433499 18.9646643,2.23140223 19.0398479,2.40659295 Z" id="Fill-2"></path>
        </g>
    </g>
</svg>
