<?xml version="1.0" encoding="UTF-8"?>
<svg width="1144px" height="717px" viewBox="0 0 1144 717" version="1.1" xmlns="http://www.w3.org/2000/svg" xmlns:xlink="http://www.w3.org/1999/xlink">
    <!-- Generator: Sketch 39.1 (31720) - http://www.bohemiancoding.com/sketch -->
    <title>Lägern Logo Blue</title>
    <desc>Created with Sketch.</desc>
    <defs></defs>
    <g id="Page-1" stroke="none" stroke-width="1" fill="none" fill-rule="evenodd">
        <g id="Lägern-Logo-Blue" fill="#244392">
            <path d="M1.57188811e-06,2.571 C0.0470015719,6.933 0.0590015719,11.191 0.0590015719,15.448 C0.0590015719,20.273 0.0430015719,25.099 0.0430015719,29.924 L0.0430015719,712.381 L0.0430015719,716.591 L4.36000157,716.591 L199.952002,716.591 L317.342002,716.591 L375.940002,716.591 C483.516002,716.591 591.093002,716.59 698.669002,716.589 L727.977002,716.589 L757.272002,716.589 C767.201002,716.589 776.869002,716.588 786.562002,716.588 L815.870002,716.588 L845.162002,716.588 C855.256002,716.587 864.854002,716.587 874.456002,716.587 L903.752002,716.587 C913.948002,716.586 923.532002,716.586 933.087002,716.586 L962.455002,716.586 C972.649002,716.585 982.210002,716.585 991.788002,716.585 C1001.996,716.585 1011.558,716.585 1021.113,716.584 L1050.506,716.584 C1060.673,716.583 1070.283,716.583 1079.884,716.583 C1090.009,716.583 1099.641,716.582 1109.335,716.582 C1119.319,716.582 1129.05,716.582 1138.79,716.581 C1143.845,716.609 1143.439,716.178 1143.438,711.968 C1143.442,601.481 1143.445,491.019 1143.445,380.557 C1143.445,255.367 1143.442,130.177 1143.435,4.987 C1143.444,0.467 1143.888,0.001 1141.354,5.68434189e-14 C1128.656,0.034 1118.699,0.033 1108.755,0.033 C1098.608,0.032 1088.759,0.032 1078.908,0.032 C1068.562,0.032 1058.802,0.031 1048.997,0.031 C818.537002,0.025 588.745002,0.023 358.970002,0.023 L299.098002,0.023 L179.140002,0.023 L4.67100157,0.023 C0.474001572,-0.038 -0.000998428112,0.827 1.57188811e-06,2.571 Z M444.702002,534.297 L444.702002,534.297 L444.708002,534.297 C445.733002,534.299 446.292002,534.966 446.875002,536.405 C446.886002,536.432 446.897002,536.46 446.908002,536.488 C461.999002,574.405 477.167002,612.291 492.319002,650.183 C497.297002,662.634 502.277002,675.083 507.252002,687.535 C507.618002,688.45 507.943002,689.382 508.441002,690.721 L322.443002,690.721 C322.443002,690.333 322.412002,689.994 322.412002,689.682 C322.412002,689.5 322.422002,689.327 322.454002,689.159 C331.333002,642.719 340.238002,596.283 349.065002,549.833 C349.067002,549.821 349.070002,549.809 349.072002,549.797 C349.073002,549.791 349.074002,549.786 349.076002,549.78 C349.420002,548.022 350.045002,547.438 351.545002,547.437 L351.551002,547.437 L351.553002,547.437 C351.731002,547.437 351.921002,547.445 352.125002,547.461 C352.141002,547.462 352.158002,547.463 352.174002,547.464 C352.311002,547.475 352.450002,547.487 352.587002,547.497 C358.491002,547.962 364.374002,548.2 370.236002,548.2 L370.239002,548.2 L370.249002,548.2 C388.747002,548.199 407.025002,545.825 425.024002,540.679 C425.237002,540.619 425.452002,540.557 425.665002,540.495 C431.500002,538.805 437.269002,536.842 442.955002,534.703 C443.001002,534.686 443.046002,534.669 443.091002,534.653 C443.735002,534.419 444.257002,534.298 444.695002,534.297 L444.702002,534.297 M249.771002,509.49 L249.771002,509.49 L249.781002,509.49 C250.173002,509.492 250.613002,509.66 251.159002,510.032 C251.185002,510.05 251.211002,510.068 251.238002,510.087 L251.268002,510.108 C272.467002,525.207 295.664002,536.023 320.972002,542.184 C322.936002,542.662 323.739002,543.262 323.735002,544.792 C323.734002,545.192 323.678002,545.655 323.574002,546.196 C314.436002,593.517 305.402002,640.858 296.399002,688.205 C296.394002,688.232 296.389002,688.259 296.384002,688.286 C296.004002,690.201 295.300002,690.927 293.200002,690.929 L293.195002,690.929 L293.187002,690.929 C224.286002,690.87 155.385002,690.881 86.4840016,690.873 C85.7640016,690.873 85.0440016,690.766 83.6440016,690.654 C84.7300016,689.422 85.3660016,688.677 86.0260016,687.955 C132.664002,636.899 179.304002,585.845 225.944002,534.792 C233.304002,526.736 240.683002,518.697 248.006002,510.608 C248.023002,510.589 248.040002,510.57 248.057002,510.551 C248.061002,510.548 248.064002,510.544 248.068002,510.54 C248.076002,510.531 248.084002,510.523 248.092002,510.514 C248.678002,509.879 249.168002,509.492 249.766002,509.49 L249.771002,509.49 M469.676002,523.467 C469.677002,522.484 470.277002,521.839 471.544002,521.118 C492.843002,509.002 511.259002,493.418 527.030002,474.684 C527.401002,474.243 527.782002,473.81 528.404002,473.087 C618.570002,545.571 708.469002,617.84 798.368002,690.109 C798.298002,690.314 798.227002,690.52 798.157002,690.725 C797.290002,690.777 796.423002,690.874 795.556002,690.874 C710.149002,690.881 624.743002,690.873 539.336002,690.928 L539.327002,690.928 L539.319002,690.928 C537.201002,690.927 536.135002,690.334 535.323002,688.345 C535.318002,688.331 535.312002,688.318 535.306002,688.304 C535.303002,688.294 535.299002,688.284 535.295002,688.275 C513.619002,633.893 491.889002,579.532 470.094002,525.197 C469.818002,524.507 469.675002,523.947 469.676002,523.467 M175.610002,407.285 C186.079002,438.72 202.985002,466.008 226.515002,489.166 C227.517002,490.152 228.754002,490.9 230.032002,491.874 C228.831002,493.29 228.173002,494.119 227.461002,494.899 C169.023002,558.873 110.579002,622.842 52.1680016,686.841 C51.3240016,687.765 48.8690012,690.868996 48.8690012,690.868996 C48.8690012,690.868996 48.2570016,690.869 47.6880016,690.868996 C47.1330016,690.869 46.5770016,690.87 46.0220016,690.87 C45.3750016,690.87 44.7510016,690.869 44.1270016,690.869 C43.4980016,690.869 42.8700016,690.868 42.2420016,690.868 C41.6100016,690.868 40.9770016,690.867 40.3450016,690.867 C39.7150016,690.866 39.0840016,690.866 38.4540016,690.866 C36.7300016,690.866 35.0250016,690.868 33.3190016,690.873 C33.0840016,690.874 32.8480016,690.875 32.6130016,690.876 C31.1250016,690.882 29.6360016,690.891 28.1480016,690.904 C26.4050016,690.903 25.6610016,690.311 25.8420016,688.592 C25.8710016,687.593 25.8490016,687.217 25.8490016,686.843 C25.8490016,665.167 25.8510016,643.491 25.8510016,621.815 C25.8510016,566.422 25.8430016,511.028 25.7850016,455.634 C25.7870016,452.752 26.5260016,451.469 29.3820016,450.56 C76.6870016,435.505 123.950002,420.314 171.222002,405.155 C172.562002,404.728 173.169002,404.551 173.624002,404.524 C174.681002,404.522 174.936002,405.262 175.610002,407.285 Z M572.327002,382.665 L572.327002,382.665 L572.330002,382.665 C572.564002,382.665 572.825002,382.688 573.117002,382.733 L573.119002,382.733 C573.138002,382.736 573.158002,382.739 573.178002,382.743 C573.182002,382.743 573.186002,382.744 573.190002,382.745 C573.198002,382.746 573.206002,382.747 573.215002,382.749 C573.231002,382.751 573.247002,382.754 573.264002,382.757 C641.232002,394.495 709.212002,406.169 777.191002,417.844 C846.566002,429.76 915.943002,441.665 985.319002,453.578 C1028.176,460.937 1071.032,468.299 1113.888,475.664 C1117.683,476.317 1117.684,476.333 1117.684,480.153 L1117.684,577.024 L1117.684,635.146 C1117.684,643.896 1117.685,652.645 1117.685,661.395 C1117.685,670.145 1117.684,678.894 1117.682,687.644 C1117.682,690.872 1117.671,690.88 1114.361,690.88 C1099.279,690.88 1084.195,690.881 1069.113,690.881 L1023.89,690.881 L1023.865,690.881 L978.617002,690.881 L972.779002,690.881 L972.772002,690.881 L966.943002,690.881 L966.924002,690.881 C964.985002,690.881 963.044002,690.881 961.106002,690.88 L961.076002,690.88 L955.257002,690.88 L949.447002,690.88 L949.406002,690.88 C947.468002,690.88 945.530002,690.88 943.591002,690.879 L943.569002,690.879 L937.742002,690.879 L937.734002,690.879 L931.896002,690.879 L931.886002,690.879 C903.861002,690.879 875.836002,690.885 847.811002,690.919 C846.498002,690.921 845.186002,690.922 843.873002,690.924 L843.855002,690.924 L843.846002,690.924 C841.492002,690.922 839.678002,690.288 837.838002,688.826 C837.826002,688.816 837.815002,688.807 837.803002,688.798 C837.793002,688.79 837.783002,688.782 837.774002,688.774 C773.834002,637.312 709.854002,585.898 645.881002,534.477 C612.699002,507.806 579.515002,481.135 546.338002,454.457 C544.513002,452.989 543.754002,452.496 543.754002,451.835 C543.755002,451.26 544.329002,450.56 545.277002,448.985 C557.286002,429.032 565.663002,407.662 570.289002,384.836 C570.292002,384.819 570.296002,384.804 570.299002,384.788 C570.300002,384.784 570.300002,384.78 570.301002,384.777 C570.304002,384.764 570.306002,384.752 570.309002,384.739 C570.311002,384.731 570.313002,384.722 570.314002,384.714 C570.615002,383.316 571.079002,382.667 572.319002,382.665 L572.327002,382.665 M27.1470016,295.266 L27.1470016,295.266 L27.1680016,295.266 C27.5300016,295.268 27.9920016,295.322 28.5800016,295.403 C28.5900016,295.404 28.6000016,295.406 28.6100016,295.407 C28.6300016,295.41 28.6510016,295.413 28.6710016,295.415 C28.7290016,295.423 28.7880016,295.432 28.8480016,295.44 C28.8560016,295.441 28.8640016,295.442 28.8720016,295.444 C28.9290016,295.452 28.9880016,295.46 29.0480016,295.469 C29.0560016,295.47 29.0640016,295.471 29.0730016,295.472 C63.6170016,300.395 98.1590016,305.331 132.701002,310.266 C143.501002,311.809 154.292002,313.417 165.105002,314.863 C166.786002,315.087 167.357002,315.66 167.357002,316.92 C167.357002,317.174 167.333002,317.457 167.291002,317.77 C166.116002,326.469 165.535002,335.161 165.536002,343.843 C165.537002,354.743 166.456002,365.629 168.272002,376.495 C168.328002,376.831 168.358002,377.134 168.359002,377.407 C168.361002,378.621 167.779002,379.257 166.294002,379.731 C120.274002,394.442 74.2730016,409.21 28.2660016,423.959 C27.6520016,424.156 27.0040016,424.242 25.8490016,424.494 L25.8490016,421.141 L25.8490016,375.124 C25.8490016,349.56 25.8490016,323.995 25.8500016,298.431 C25.8500016,295.944 25.8570016,295.267 27.1430016,295.266 L27.1470016,295.266 M371.018002,165.071 L371.018002,165.071 L371.028002,165.071 C467.090002,165.075 547.390002,244.26 548.745002,340.464 C548.746002,340.529 548.747002,340.585 548.748002,340.65 C548.751002,340.917 548.754002,341.191 548.757002,341.458 C548.761002,341.993 548.763002,342.527 548.763002,343.061 C548.743002,441.896 469.953002,521.55 370.869002,522.507 L370.774002,522.507 L370.762002,522.507 L370.687002,522.507 C370.669002,522.508 370.664002,522.508 370.646002,522.508 L370.601002,522.508 L370.324002,522.508 L370.301002,522.508 L370.068002,522.508 L370.057002,522.508 C273.008002,522.508 192.913002,444.798 191.444002,346.878 C191.430002,345.948 191.423002,345.02 191.423002,344.093 C191.415002,245.134 270.264002,165.97 369.445002,165.078 L369.531002,165.078 C369.543002,165.077 369.550002,165.077 369.562002,165.077 L369.614002,165.077 C369.631002,165.077 369.666002,165.076 369.683002,165.076 L369.694002,165.076 C370.056002,165.073 370.406002,165.072 370.767002,165.071 L370.780002,165.071 L370.846002,165.071 L370.905002,165.071 L370.928002,165.071 L371.018002,165.071 M570.235002,302.072 C570.239002,300.667 571.376002,300.436 572.590002,300.084 C591.394002,294.643 610.195002,289.193 628.995002,283.74 C778.350002,240.414 927.704002,197.087 1077.059,153.761 C1089.538,150.141 1102.02,146.529 1114.503,142.917 C1115.367,142.668 1116.243,142.459 1117.526,142.124 L1117.526,450.031 C1116.298,449.875 1115.26,449.785 1114.238,449.61 C1043.044,437.382 971.851002,425.144 900.656002,412.913 C807.949002,396.986 715.240002,381.065 622.532002,365.138 C607.259002,362.515 591.991002,359.86 576.710002,357.279 C575.089002,357.005 574.173002,356.626 574.176002,354.829 C574.176002,354.725 574.179002,354.616 574.186002,354.503 C574.398002,350.7 574.504002,346.904 574.504002,343.115 C574.502002,329.585 573.135002,316.151 570.323002,302.833 C570.263002,302.547 570.235002,302.295 570.235002,302.072 M25.8010016,266.021 L25.8010016,266.021 C25.8620016,205.775 25.8490016,145.529 25.8550016,85.283 C25.8550016,84.473 25.9300016,83.662 26.0080016,82.089 C30.2840016,85.408 34.0280016,88.285 37.7420016,91.201 C92.4620016,134.172 147.181002,177.146 201.890002,220.132 C203.996002,221.787 204.912002,222.319 204.912002,223.007 C204.911002,223.648 204.115002,224.424 202.745002,226.371 C189.589002,245.078 179.835002,265.415 173.558002,287.397 C173.554002,287.412 173.550002,287.427 173.545002,287.442 C173.542002,287.453 173.539002,287.464 173.536002,287.475 C173.532002,287.488 173.528002,287.502 173.524002,287.516 L173.523002,287.516 C173.035002,289.145 172.372002,289.706 171.084002,289.707 L171.079002,289.707 L171.075002,289.707 C170.781002,289.707 170.454002,289.678 170.089002,289.626 C170.084002,289.625 170.078002,289.624 170.072002,289.623 C141.954002,285.555 113.825002,281.559 85.7000016,277.541 C66.7370016,274.832 47.7800016,272.08 28.8050016,269.457 C26.5180016,269.141 25.7990016,268.348 25.8010016,266.021 M258.567002,25.956 L258.567002,25.956 L425.230002,25.956 C424.547002,30.057 423.924002,33.958 423.243002,37.849 C417.300002,71.79 411.328002,105.727 405.439002,139.677 C405.437002,139.688 405.435002,139.698 405.433002,139.709 C405.431002,139.72 405.429002,139.731 405.427002,139.742 C405.122002,141.44 404.584002,142.071 403.264002,142.073 L403.259002,142.073 L403.255002,142.073 C402.958002,142.073 402.623002,142.041 402.241002,141.982 C402.217002,141.979 402.193002,141.975 402.169002,141.971 C401.923002,141.932 401.677002,141.893 401.431002,141.855 C390.823002,140.2 380.263002,139.379 369.764002,139.378 L369.759002,139.378 L369.750002,139.378 C349.793002,139.38 330.031002,142.347 310.477002,148.199 C310.458002,148.205 310.439002,148.211 310.419002,148.216 C310.414002,148.218 310.409002,148.219 310.403002,148.221 C310.374002,148.229 310.345002,148.237 310.317002,148.245 C310.315002,148.246 310.313002,148.247 310.311002,148.247 C309.875002,148.369 309.504002,148.436 309.183002,148.437 L309.177002,148.437 L309.172002,148.437 C308.329002,148.435 307.822002,147.975 307.351002,146.854 C307.350002,146.851 307.348002,146.848 307.347002,146.845 C307.337002,146.821 307.328002,146.798 307.318002,146.774 C307.315002,146.767 307.312002,146.761 307.310002,146.754 C291.350002,107.313 275.341002,67.893 259.349002,28.466 C259.077002,27.795 258.913002,27.079 258.567002,25.956 M849.889002,25.794 L849.889002,25.794 L1113.87,25.794 C1117.678,25.794 1117.683,25.797 1117.683,29.576 L1117.683,30.861 C1117.683,41.998 1117.678,53.136 1117.678,64.273 C1117.678,80.122 1117.689,95.971 1117.743,111.82 L1117.743,111.879 C1117.741,114.354 1117.028,115.425 1114.575,116.135 C937.477002,167.44 760.399002,218.81 583.318002,270.175 C577.237002,271.939 571.140002,273.654 565.084002,275.501 C565.070002,275.505 565.057002,275.509 565.043002,275.513 C565.042002,275.513 565.041002,275.514 565.040002,275.514 C565.033002,275.516 565.026002,275.518 565.019002,275.52 C564.613002,275.64 564.268002,275.702 563.970002,275.703 L563.965002,275.703 L563.954002,275.703 C563.105002,275.699 562.636002,275.192 562.215002,274.093 C562.211002,274.083 562.208002,274.073 562.204002,274.063 C562.197002,274.045 562.190002,274.025 562.183002,274.006 C562.179002,273.998 562.176002,273.989 562.173002,273.981 C552.736002,248.234 538.743002,225.252 520.027002,205.2 C519.184002,204.297 518.801002,203.595 518.804002,202.912 C518.806002,202.175 519.259002,201.459 520.067002,200.536 C569.869002,143.58 619.620002,86.579 669.350002,29.56 C670.176002,28.613 670.645002,27.355 671.536002,25.794 L673.901002,25.794 L849.889002,25.794 M430.404002,146.82 C430.404002,146.485 430.446002,146.105 430.523002,145.668 C437.336002,107.145 444.055002,68.605 450.794002,30.07 C450.823002,29.905 450.844002,29.74 450.874002,29.576 C451.558002,25.795 451.558002,25.794 455.377002,25.794 L544.747002,25.794 L634.117002,25.794 L637.465002,25.794 C637.574002,26.038 637.683002,26.282 637.792002,26.525 C591.638002,79.389 545.485002,132.251 499.253002,185.203 C498.536002,184.726 497.970002,184.404 497.465002,184.004 C477.922002,168.548 456.378002,156.807 432.620002,149.226 C431.021002,148.716 430.405002,148.103 430.404002,146.82 M231.588002,28.591 C248.728002,71.013 265.863002,113.224 283.080002,155.402 C283.398002,156.181 283.566002,156.8 283.566002,157.319 C283.567002,158.362 282.892002,158.995 281.412002,159.7 C259.593002,170.091 240.346002,184.102 223.533002,201.433 C222.778002,202.188 222.222002,202.443 221.723002,202.443 C220.951002,202.44 220.321002,201.834 219.588002,201.243 C180.584002,170.614 141.720002,140.1 102.855002,109.587 C78.2130016,90.239 53.5950016,70.861 28.8850016,51.601 C27.4653787,50.4948004 25.8510016,49.0289998 25.8510016,49.0289998 L25.7730016,45.623 C25.7730016,45.623 25.9040016,40.8 25.9050016,38.633 C25.9050016,35.55 25.8510016,32.465 25.8510016,29.381 C25.8540016,25.805 25.8610016,25.796 29.1200016,25.795 C38.6970016,25.795 48.2720016,25.794 57.8490016,25.794 L86.5550016,25.794 L128.363002,25.794 C134.904002,25.794 141.445002,25.795 147.986002,25.796 C154.523002,25.797 161.065002,25.798 167.602002,25.798 C184.915002,25.798 202.209002,25.79 219.506002,25.754 C220.332002,25.753 221.156002,25.751 221.981002,25.749 C223.689002,25.745 225.398002,25.741 227.106002,25.737 C229.515002,25.738 230.673002,26.439 231.588002,28.591 Z" id="Fill-2"></path>
        </g>
    </g>
</svg>