<?xml version="1.0" encoding="UTF-8"?>
<svg width="238px" height="232px" viewBox="0 0 238 232" version="1.1" xmlns="http://www.w3.org/2000/svg" xmlns:xlink="http://www.w3.org/1999/xlink">
    <!-- Generator: Sketch 40.2 (33826) - http://www.bohemiancoding.com/sketch -->
    <title>pio-icon</title>
    <desc>Created with Sketch.</desc>
    <defs></defs>
    <g id="Icons" stroke="none" stroke-width="1" fill="none" fill-rule="evenodd">
        <g id="Pfadi" transform="translate(-44.000000, -29.000000)" fill="#FFFFFF">
            <g id="pio-icon" transform="translate(17.000000, 24.000000)">
                <g id="hammer" transform="translate(132.582521, 132.582521) rotate(-45.000000) translate(-132.582521, -132.582521) translate(58.582521, 19.082521)">
                    <path d="M91.2261016,175.328293 L100.516504,175.25514 L100.706377,215.391609 C100.706377,221.354717 95.6030434,226.206232 89.3304182,226.206232 L66.9396047,226.206232 C60.6669795,226.206232 55.5636456,221.354717 55.5636456,215.391609 L55.6152237,175.608694 L65.0429919,175.534459 L65.0429919,216.710553 C65.0429919,216.97751 65.8934701,217.194635 66.93914,217.194635 L89.3299535,217.194635 C90.3756234,217.194635 91.2261016,216.97751 91.2261016,216.710553 L91.2261016,175.328293 Z" id="Combined-Shape"></path>
                    <path d="M127.779468,13.9656112 L101.943521,13.9656112 C99.326093,13.9656112 97.2036155,15.9833571 97.2036155,18.4716305 C97.2036155,20.9599039 99.326093,22.9776498 101.943521,22.9776498 L127.779468,22.9776498 C130.396896,22.9776498 132.519374,20.9599039 132.519374,18.4716305 C132.519374,15.9837989 130.397361,13.9656112 127.779468,13.9656112 L127.779468,13.9656112 Z" id="Shape"></path>
                    <path d="M86.7464517,13.9656112 L84.7201758,13.9656112 C82.1027478,13.9656112 79.9802703,15.9833571 79.9802703,18.4716305 C79.9802703,20.9599039 82.1027478,22.9776498 84.7201758,22.9776498 L86.7464517,22.9776498 C89.3638797,22.9776498 91.4863572,20.9599039 91.4863572,18.4716305 C91.4868219,15.9837989 89.3638797,13.9656112 86.7464517,13.9656112 L86.7464517,13.9656112 Z" id="Shape"></path>
                    <path d="M65.0429919,84.8031334 L55.5636456,85.0990258 L55.5636456,61.0227847 L14.6245069,61.0227847 C8.85891545,61.0227847 3.79322568,57.92393 1.40398613,52.9363379 C-0.985718165,47.9478622 -0.118509256,42.2812083 3.6668158,38.1467512 L34.249175,4.74327119 C37.0092788,1.72880217 41.0032731,1.13686838e-12 45.2068661,1.13686838e-12 L134.449448,1.13686838e-12 C141.764955,1.13686838e-12 147.716908,5.65825951 147.716908,12.6127893 L147.716908,48.4104372 C147.716908,55.364967 141.764955,61.0232265 134.449448,61.0232265 L100.706377,61.0232265 L100.870058,83.6848122 L91.2261016,83.9858427 L91.2261016,61.0236683 L65.0429919,61.0236683 L65.0429919,84.8031334 Z M138.237097,48.410879 C138.237097,50.3963727 136.538464,52.0111879 134.449913,52.0111879 L14.6240422,52.0111879 C11.6111186,52.0111879 10.3470199,49.8608991 10.03146,49.2021605 C9.71590003,48.5429802 8.83939627,46.2248036 10.8178037,44.0643531 L41.4001629,10.6604313 C42.358926,9.61334181 43.7471109,9.01248034 45.2073309,9.01248034 L134.449913,9.01248034 C136.538464,9.01248034 138.237097,10.6272956 138.237097,12.6127893 L138.237097,48.410879 Z" id="Combined-Shape"></path>
                </g>
                <g id="Saw" transform="translate(45.000000, 52.000000)">
                    <g id="Group">
                        <path d="M25.0868253,122.308439 L18.0052154,129.047899 C14.5887316,132.299315 14.5887316,137.590133 18.0052154,140.841955 L46.3320822,167.800203 C47.9871351,169.375291 50.1877488,170.242932 52.5284909,170.242932 C54.8696602,170.242932 57.0698467,169.375291 58.7248996,167.800203 L65.8065095,161.060742 C66.5109964,160.3907 66.9066027,159.481588 66.9066027,158.533445 C66.9066027,157.585302 66.5109964,156.67619 65.8065095,156.006147 L30.3980327,122.308439 C29.693973,121.637989 28.7387076,121.261497 27.742429,121.261497 C26.7465776,121.26109 25.7908849,121.637583 25.0868253,122.308439 L25.0868253,122.308439 Z M57.8396984,158.533038 L53.4141194,162.745201 C53.0949855,163.048916 52.7224491,163.094046 52.5289181,163.094046 C52.3358144,163.094046 51.9628507,163.048916 51.6437169,162.745201 L23.31685,135.786953 C22.8285368,135.322233 22.8285368,134.566402 23.31685,134.101681 L27.742429,129.889519 L57.8396984,158.533038 L57.8396984,158.533038 Z" id="Shape"></path>
                        <path d="M74.6589491,127.362627 C75.3920598,128.060318 76.3533063,128.409569 77.3145528,128.409569 C78.2753721,128.409569 79.2370459,128.060724 79.9701566,127.362627 L182.655636,29.6388261 C184.122285,28.2430389 184.122285,25.9796113 182.655636,24.5842308 C181.188988,23.1884437 178.81065,23.1884437 177.344429,24.5842308 L74.6589491,122.308439 C73.1923005,123.703413 73.1923005,125.96684 74.6589491,127.362627 L74.6589491,127.362627 Z" id="Shape"></path>
                        <path d="M218.064113,17.8443639 C206.004955,6.36784677 189.972218,0.0475697913 172.917996,0.0475697913 C155.864201,0.0475697913 139.831036,6.36784677 127.771878,17.8443639 L34.8244661,106.301407 L30.3984599,102.089245 C28.9322386,100.693457 26.5543283,100.693457 25.0872525,102.089245 L7.38237327,118.937895 C-1.89173315,127.764328 -1.89173315,142.125119 7.38237327,150.950739 L35.7092401,177.908987 C40.2018928,182.184576 46.174865,184.539484 52.5280637,184.539484 C58.8816896,184.539484 64.8546618,182.184982 69.3473145,177.908987 L87.0513392,161.060336 C87.7558261,160.390293 88.1514325,159.481181 88.1514325,158.533038 C88.1514325,157.584895 87.7558261,156.675783 87.0513392,156.005741 L81.7503851,150.96131 L85.2762373,142.939498 L96.0289545,138.65903 C96.939789,138.296361 97.663928,137.607616 98.0445817,136.740788 L102.540652,126.509217 L113.29166,122.230376 C114.202068,121.867707 114.926634,121.178555 115.307287,120.312134 L119.803358,110.08097 L130.553939,105.802534 C131.464773,105.439866 132.188912,104.750713 132.569993,103.883886 L137.065209,93.6535349 L147.814509,89.3759129 C148.725343,89.0132441 149.449909,88.324092 149.830563,87.4572647 L154.324497,77.2285398 L165.074224,72.9505112 C165.985058,72.5878424 166.709197,71.8986903 167.090278,71.031863 L171.585494,60.8015118 L182.335221,56.5234832 C183.246055,56.1608143 183.970194,55.4716622 184.351275,54.6048349 L188.846064,44.3748903 L199.595791,40.0968617 C200.506625,39.7341929 201.230764,39.0450408 201.611845,38.1782135 L206.106634,27.9486754 L216.857215,23.6698337 C218.01242,23.2099924 218.850626,22.2325755 219.093288,21.0636597 C219.335522,19.8939307 218.949314,18.687203 218.064113,17.8443639 L218.064113,17.8443639 Z M64.0365342,172.855205 C60.9622543,175.780137 56.8758885,177.391411 52.5284909,177.391411 C48.1815205,177.391411 44.0947276,175.780137 41.0208748,172.855205 L12.6940079,145.896957 C6.34892646,139.858033 6.34892646,130.032228 12.6940079,123.993304 L27.7428562,109.671544 L79.0858098,158.533851 L64.0365342,172.855205 L64.0365342,172.855205 Z M201.78786,21.9182896 C200.877025,22.2809584 200.152886,22.9701105 199.771806,23.8369378 L195.277017,34.0664759 L184.52729,38.3445045 C183.616456,38.7071733 182.892317,39.3963254 182.511236,40.2631527 L178.016447,50.4930973 L167.26672,54.7711259 C166.355886,55.1337947 165.631747,55.8229468 165.250666,56.6897742 L160.75545,66.9201253 L150.005724,71.1981539 C149.094889,71.5608228 148.370323,72.2499749 147.989669,73.1168022 L143.495735,83.3455271 L132.746435,87.6231491 C131.835601,87.9858179 131.111035,88.67497 130.730381,89.5417973 L126.235165,99.7721485 L115.485011,104.050584 C114.574177,104.413253 113.850038,105.102405 113.468957,105.969232 L108.972887,116.200396 L98.2223055,120.478831 C97.3118982,120.8415 96.5873319,121.530652 96.2066783,122.39748 L91.7097535,132.629051 L80.9570363,136.909519 C80.0466291,137.271781 79.32249,137.960933 78.9414092,138.82776 L76.0098209,145.496882 L40.1348191,111.355189 L133.083513,22.8993657 C143.723443,12.7730988 157.870429,7.19604903 172.917996,7.19604903 C186.043069,7.19604903 198.483308,11.4395184 208.508896,19.2434036 L201.78786,21.9182896 L201.78786,21.9182896 Z" id="Shape"></path>
                    </g>
                </g>
            </g>
        </g>
    </g>
</svg>