<?xml version="1.0" encoding="UTF-8"?>
<svg width="100px" height="100px" viewBox="0 0 100 100" version="1.1" xmlns="http://www.w3.org/2000/svg" xmlns:xlink="http://www.w3.org/1999/xlink">
    <!-- Generator: Sketch 40.2 (33826) - http://www.bohemiancoding.com/sketch -->
    <title>Fünkli Icon</title>
    <desc>Created with Sketch.</desc>
    <defs></defs>
    <g id="Page-1" stroke="none" stroke-width="1" fill="none" fill-rule="evenodd">
        <g id="Fünkli-Icon" fill="#FFFFFF">
            <path d="M99.5819355,95.0475269 L89.7122581,85.7690323 L96.112043,73.8290323 C96.284086,73.5047312 96.1935484,73.0982796 95.8907527,72.883871 C95.5922581,72.6664516 95.18,72.7049462 94.9258065,72.9750538 L85.6470968,82.8449462 L73.7045161,76.447957 C73.3787097,76.2752688 72.9735484,76.3668817 72.7593548,76.6688172 C72.5406452,76.968172 72.584086,77.3804301 72.8535484,77.6339785 L82.7268817,86.916129 L76.3296774,98.8554839 C76.1541935,99.1834409 76.2483871,99.5868817 76.5468817,99.8043011 C76.8501075,100.018495 77.2621505,99.9797849 77.5150538,99.7101075 L86.7944086,89.8365591 L98.7313978,96.2335484 C99.0552688,96.4060215 99.4610753,96.3148387 99.676129,96.0126882 C99.8937634,95.7144086 99.8511828,95.2980645 99.5819355,95.0475269 L99.5819355,95.0475269 Z" id="XMLID_212_"></path>
            <path d="M79.3733333,20.3529032 L75.0135484,28.4875269 C74.7898925,28.9 74.9105376,29.4137634 75.2898925,29.6892473 C75.6733333,29.9625806 76.1963441,29.9105376 76.5178495,29.5690323 L82.844086,22.8445161 L90.9688172,27.2015054 C91.3819355,27.4217204 91.8984946,27.3055914 92.1707527,26.9251613 C92.444086,26.5417204 92.396129,26.0187097 92.0513978,25.6974194 L85.332043,19.3780645 L89.692043,11.2460215 C89.9131183,10.8335484 89.7922581,10.3197849 89.4131183,10.043871 C89.0333333,9.7711828 88.5064516,9.82344086 88.1845161,10.163871 L81.8660215,16.8858065 L73.7339785,12.5260215 C73.3176344,12.3053763 72.803871,12.4255914 72.532043,12.8058065 C72.2582796,13.1855914 72.307957,13.712043 72.6490323,14.0339785 L79.3733333,20.3529032 L79.3733333,20.3529032 Z" id="XMLID_211_"></path>
            <path d="M26.6572043,77.4322581 L17.0531183,78.7739785 L13.2658065,69.8526882 C13.0709677,69.3982796 12.5739785,69.1576344 12.0995699,69.2868817 C11.6208602,69.4208602 11.3197849,69.8847312 11.3870968,70.3731183 L12.7288172,79.9729032 L3.80430108,83.7610753 C3.35268817,83.9563441 3.10967742,84.4529032 3.24215054,84.9275269 C3.37311828,85.4047312 3.8372043,85.707957 4.32430108,85.6393548 L13.927957,84.2972043 L17.7152688,93.2219355 C17.907957,93.6774194 18.4073118,93.9178495 18.8819355,93.7873118 C19.3563441,93.6546237 19.6617204,93.1926882 19.5941935,92.7027957 L18.2526882,83.0989247 L27.1774194,79.3103226 C27.6288172,79.115914 27.8729032,78.6184946 27.7391398,78.144086 C27.6092473,77.6660215 27.1443011,77.3645161 26.6572043,77.4322581 L26.6572043,77.4322581 Z" id="XMLID_210_"></path>
            <path d="M1.05548387,9.71204301 L8.50623656,11.7630108 L8.45677419,19.4688172 C8.45419355,19.9010753 8.7683871,20.2653763 9.19806452,20.3268817 C9.62301075,20.3851613 10.0262366,20.1184946 10.1393548,19.7030108 L12.1868817,12.2696774 L19.9122581,12.3180645 C20.3445161,12.3215054 20.7083871,12.0068817 20.7707527,11.5780645 C20.8290323,11.151828 20.5621505,10.7494624 20.1460215,10.6354839 L12.6993548,8.58236559 L12.7451613,0.866021505 C12.7490323,0.433763441 12.4298925,0.0701075269 12.0051613,0.00838709677 C11.5787097,-0.0503225806 11.175914,0.215913978 11.0625806,0.632258065 L9.01247312,8.07483871 L1.28946237,8.02666667 C0.861290323,8.02666667 0.493548387,8.34129032 0.43483871,8.76666667 C0.37655914,9.19290323 0.64344086,9.59849462 1.05548387,9.71204301 L1.05548387,9.71204301 Z" id="XMLID_209_"></path>
            <path d="M59.7890323,50.4341935 L89.848172,46.4606452 C90.1892473,46.4154839 90.4421505,46.1262366 90.4421505,45.7847312 C90.4421505,45.4434409 90.1892473,45.1550538 89.848172,45.1090323 L59.7890323,41.1354839 L64.1924731,28.7150538 C64.3767742,28.1890323 64.2430108,27.6004301 63.8477419,27.2077419 C63.4546237,26.8111828 62.8655914,26.6819355 62.3402151,26.8666667 L49.9322581,31.271828 L45.9587097,1.22322581 C45.9169892,0.88172043 45.6245161,0.628817204 45.2834409,0.628817204 C44.9427957,0.628817204 44.6522581,0.88172043 44.6068817,1.22322581 L40.6376344,31.2756989 L28.2135484,26.8666667 C27.6870968,26.6784946 27.0993548,26.8111828 26.7051613,27.2077419 C26.3094624,27.6004301 26.176129,28.1890323 26.364086,28.7150538 L30.7703226,41.1391398 L0.720860215,45.1090323 C0.380215054,45.1550538 0.12688172,45.4434409 0.12688172,45.7847312 C0.12688172,46.1262366 0.380215054,46.4154839 0.720860215,46.4606452 L30.7703226,50.4307527 L26.364086,62.8483871 C26.176129,63.3746237 26.3094624,63.9627957 26.7051613,64.355914 C27.0993548,64.752043 27.6868817,64.8853763 28.2135484,64.696129 L40.6376344,60.2946237 L44.6068817,90.3468817 C44.6524731,90.6873118 44.9430108,90.9412903 45.2834409,90.9412903 C45.6245161,90.9412903 45.9167742,90.6873118 45.9587097,90.3468817 L49.9322581,60.2946237 L62.3466667,64.7002151 C62.8716129,64.8886022 63.4608602,64.7552688 63.8539785,64.3584946 C64.2507527,63.9660215 64.3832258,63.3774194 64.1946237,62.8516129 L59.7890323,50.4341935 L59.7890323,50.4341935 Z" id="XMLID_208_"></path>
        </g>
    </g>
</svg>