<?xml version="1.0" encoding="UTF-8" standalone="no"?>
<svg
   xmlns:dc="http://purl.org/dc/elements/1.1/"
   xmlns:cc="http://creativecommons.org/ns#"
   xmlns:rdf="http://www.w3.org/1999/02/22-rdf-syntax-ns#"
   xmlns:svg="http://www.w3.org/2000/svg"
   xmlns="http://www.w3.org/2000/svg"
   id="svg2"
   version="1.1"
   viewBox="0 0 100 100"
   height="100px"
   width="100px">
  <metadata
     id="metadata10">
    <rdf:RDF>
      <cc:Work
         rdf:about="">
        <dc:format>image/svg+xml</dc:format>
        <dc:type
           rdf:resource="http://purl.org/dc/dcmitype/StillImage" />
        <dc:title></dc:title>
      </cc:Work>
    </rdf:RDF>
  </metadata>
  <defs
     id="defs8" />
  <path
     style="fill:#ffffff;fill-rule:evenodd;stroke:none;stroke-width:1"
     id="XMLID_212_"
     d="m 99.610892,95.076342 -9.869677,-9.278495 6.399785,-11.94 c 0.172043,-0.324301 0.08151,-0.730752 -0.22129,-0.945161 -0.298495,-0.217419 -0.710753,-0.178925 -0.964947,0.09118 l -9.278709,9.869892 -11.942581,-6.396989 c -0.325806,-0.172688 -0.730968,-0.08107 -0.945161,0.22086 -0.21871,0.299355 -0.175269,0.711613 0.09419,0.965161 l 9.873334,9.282151 -6.397205,11.939355 c -0.175483,0.327957 -0.08129,0.731398 0.217205,0.948817 0.303225,0.214197 0.715269,0.175487 0.968172,-0.09419 l 9.279355,-9.873549 11.936989,6.396989 c 0.323871,0.172473 0.729677,0.08129 0.944731,-0.22086 0.217634,-0.298279 0.175054,-0.714624 -0.09419,-0.965161 l 0,0 z" />
  <path
     style="fill:#ffffff;fill-rule:evenodd;stroke:none;stroke-width:1"
     id="XMLID_211_"
     d="m 79.40229,20.381718 -4.359785,8.134624 c -0.223656,0.412473 -0.10301,0.926236 0.276344,1.20172 0.383441,0.273334 0.906452,0.221291 1.227957,-0.120215 l 6.326237,-6.724516 8.124731,4.356989 c 0.413118,0.220215 0.929678,0.104086 1.201936,-0.276344 0.273333,-0.383441 0.225376,-0.906451 -0.119355,-1.227742 L 85.361,19.406879 l 4.36,-8.132043 c 0.221075,-0.412473 0.100215,-0.926236 -0.278925,-1.20215 -0.379785,-0.2726884 -0.906666,-0.2204303 -1.228602,0.12 l -6.318494,6.721935 -8.132043,-4.359784 c -0.416345,-0.220646 -0.930108,-0.100431 -1.201936,0.279784 -0.273763,0.379785 -0.224086,0.906237 0.116989,1.228173 l 6.724301,6.318924 0,0 z" />
  <path
     style="fill:#ffffff;fill-rule:evenodd;stroke:none;stroke-width:1"
     id="XMLID_210_"
     d="m 26.686161,77.461073 -9.604086,1.34172 -3.787311,-8.92129 c -0.194839,-0.454408 -0.691828,-0.695054 -1.166237,-0.565806 -0.47871,0.133978 -0.779785,0.597849 -0.712473,1.086236 l 1.34172,9.599785 -8.9245155,3.788172 c -0.4516129,0.195269 -0.6946237,0.691828 -0.5621506,1.166452 0.1309678,0.477204 0.5950538,0.78043 1.0821506,0.711828 l 9.6036555,-1.342151 3.787312,8.924731 c 0.192688,0.455484 0.692043,0.695915 1.166666,0.565377 0.474409,-0.132688 0.779785,-0.594624 0.712258,-1.084516 l -1.341505,-9.603871 8.924731,-3.788602 c 0.451398,-0.194409 0.695484,-0.691828 0.561721,-1.166237 -0.129893,-0.478065 -0.594839,-0.77957 -1.081936,-0.711828 l 0,0 z" />
  <path
     style="fill:#ffffff;fill-rule:evenodd;stroke:none;stroke-width:1"
     id="XMLID_209_"
     d="M 1.0844413,9.7408578 8.535194,11.791826 8.485732,19.497632 c -0.00258,0.432258 0.3116129,0.796559 0.7412903,0.858065 0.4249463,0.05828 0.8281717,-0.208387 0.9412897,-0.623871 l 2.047527,-7.433334 7.725376,0.04839 c 0.432258,0.0034 0.796129,-0.311183 0.858495,-0.74 0.05828,-0.426237 -0.208602,-0.828603 -0.624732,-0.942581 l -7.446666,-2.0531186 0.04581,-7.71634408 c 0.0039,-0.43225806 -0.315269,-0.79591397 -0.74,-0.8576344 -0.426451,-0.05870968 -0.829247,0.20752688 -0.94258,0.62387096 L 9.0414305,8.1036535 1.3184198,8.0554815 c -0.42817206,0 -0.79591399,0.3146236 -0.85462367,0.74 -0.0582796,0.4262365 0.20860215,0.8318279 0.62064517,0.9453763 l 0,0 z" />
  <path
     style="fill:#ffffff;fill-rule:evenodd;stroke:none;stroke-width:1"
     id="XMLID_208_"
     d="m 59.817989,50.463008 30.05914,-3.973548 c 0.341075,-0.04516 0.593978,-0.334408 0.593978,-0.675914 0,-0.34129 -0.252903,-0.629677 -0.593978,-0.675699 l -30.05914,-3.973548 4.403441,-12.42043 c 0.184301,-0.526022 0.05054,-1.114624 -0.344731,-1.507312 -0.393118,-0.396559 -0.982151,-0.525806 -1.507527,-0.341075 L 49.961215,31.300643 45.987667,1.2520406 c -0.04172,-0.34150535 -0.334194,-0.59440858 -0.675269,-0.59440858 -0.340645,0 -0.631183,0.25290323 -0.676559,0.59440858 L 40.666591,31.304514 28.242505,26.895482 c -0.526451,-0.188172 -1.114193,-0.05548 -1.508387,0.341075 -0.395699,0.392688 -0.529032,0.98129 -0.341075,1.507312 L 30.79928,41.167955 0.74981763,45.137847 c -0.34064516,0.04602 -0.59397849,0.334409 -0.59397849,0.675699 0,0.341506 0.25333333,0.630753 0.59397849,0.675914 L 30.79928,50.459568 26.393043,62.877202 c -0.187957,0.526237 -0.05462,1.114409 0.341075,1.507527 0.394194,0.396129 0.981721,0.529462 1.508387,0.340215 l 12.424086,-4.401505 3.969248,30.052258 c 0.04559,0.34043 0.336129,0.594408 0.676559,0.594408 0.341075,0 0.633333,-0.253978 0.675269,-0.594408 l 3.973548,-30.052258 12.414409,4.405591 c 0.524946,0.188387 1.114193,0.05505 1.507311,-0.34172 0.396775,-0.392474 0.529248,-0.981076 0.340646,-1.506882 l -4.405592,-12.41742 0,0 z" />
</svg>
